HIERARCHY
ROOT Hips
{
	OFFSET 51.186401 -8.358575 95.611000
	CHANNELS 6 Xposition Yposition Zposition Xrotation Yrotation Zrotation
	JOINT spine
	{
		OFFSET 0.000000 -0.458069 7.965683
		CHANNELS 3 Xrotation Yrotation Zrotation
		JOINT spine1
		{
			OFFSET 0.000000 -0.000001 10.243103
			CHANNELS 3 Xrotation Yrotation Zrotation
			JOINT spine2
			{
				OFFSET 0.000000 -0.000002 9.814751
				CHANNELS 3 Xrotation Yrotation Zrotation
				JOINT Neck
				{
					OFFSET 0.000000 -1.201384 25.198593
					CHANNELS 3 Xrotation Yrotation Zrotation
					JOINT Head
					{
						OFFSET 0.000000 -0.000002 7.613144
						CHANNELS 3 Xrotation Yrotation Zrotation
						End Site
						{
							OFFSET 0.000000 6.077328 18.428101
						}
					}
				}
				JOINT RightShoulder
				{
					OFFSET -4.132698 0.575449 10.599197
					CHANNELS 3 Xrotation Yrotation Zrotation
					JOINT RightArm
					{
						OFFSET 0.000000 -0.000002 13.901794
						CHANNELS 3 Xrotation Yrotation Zrotation
						JOINT RightArmRoll
						{
							OFFSET 0.000000 -0.000002 7.017883
							CHANNELS 3 Xrotation Yrotation Zrotation
							JOINT RightForeArm
							{
								OFFSET 0.000000 -0.000003 20.440598
								CHANNELS 3 Xrotation Yrotation Zrotation
								JOINT RightForeArmRoll
								{
									OFFSET 0.000000 -0.000001 7.875168
									CHANNELS 3 Xrotation Yrotation Zrotation
									JOINT RightHand
									{
										OFFSET 0.000000 -0.000003 15.803696
										CHANNELS 3 Xrotation Yrotation Zrotation
										End Site
										{
											OFFSET 0.000000 0.000000 0.100006
										}
									}
								}
							}
						}
					}
				}
				JOINT LeftShoulder
				{
					OFFSET 4.132698 0.575449 10.599197
					CHANNELS 3 Xrotation Yrotation Zrotation
					JOINT LeftArm
					{
						OFFSET 0.000000 -0.000002 13.901794
						CHANNELS 3 Xrotation Yrotation Zrotation
						JOINT LeftArmRoll
						{
							OFFSET 0.000000 -0.000002 7.017883
							CHANNELS 3 Xrotation Yrotation Zrotation
							JOINT LeftForeArm
							{
								OFFSET 0.000000 -0.000003 20.440598
								CHANNELS 3 Xrotation Yrotation Zrotation
								JOINT LeftForeArmRoll
								{
									OFFSET 0.000000 -0.000001 7.875168
									CHANNELS 3 Xrotation Yrotation Zrotation
									JOINT LeftHand
									{
										OFFSET 0.000000 -0.000003 15.803696
										CHANNELS 3 Xrotation Yrotation Zrotation
										End Site
										{
											OFFSET 0.000000 0.000000 0.100006
										}
									}
								}
							}
						}
					}
				}
			}
		}
	}
	JOINT RightUpLeg
	{
		OFFSET -7.060478 1.086100 -1.294701
		CHANNELS 3 Xrotation Yrotation Zrotation
		JOINT RightUpLegRoll
		{
			OFFSET 0.000000 -0.000003 18.530800
			CHANNELS 3 Xrotation Yrotation Zrotation
			JOINT RightLeg
			{
				OFFSET 0.000000 0.000004 -22.947601
				CHANNELS 3 Xrotation Yrotation Zrotation
				JOINT RightLegRoll
				{
					OFFSET 0.000000 -0.000004 23.022598
					CHANNELS 3 Xrotation Yrotation Zrotation
					JOINT RightFoot
					{
						OFFSET 0.000000 -0.000003 19.162498
						CHANNELS 3 Xrotation Yrotation Zrotation
						JOINT RightToeBase
						{
							OFFSET 0.000000 -0.000003 16.018799
							CHANNELS 3 Xrotation Yrotation Zrotation
							End Site
							{
								OFFSET 0.006790 0.894205 7.757812
							}
						}
					}
				}
			}
		}
	}
	JOINT LeftUpLeg
	{
		OFFSET 7.060478 1.086100 -1.294701
		CHANNELS 3 Xrotation Yrotation Zrotation
		JOINT LeftUpLegRoll
		{
			OFFSET 0.000000 -0.000003 18.530899
			CHANNELS 3 Xrotation Yrotation Zrotation
			JOINT LeftLeg
			{
				OFFSET 0.000000 -0.000003 22.947495
				CHANNELS 3 Xrotation Yrotation Zrotation
				JOINT LeftLegRoll
				{
					OFFSET 0.000000 -0.000004 23.235504
					CHANNELS 3 Xrotation Yrotation Zrotation
					JOINT LeftFoot
					{
						OFFSET 0.000000 -0.000003 18.949600
						CHANNELS 3 Xrotation Yrotation Zrotation
						JOINT LeftToeBase
						{
							OFFSET 0.000000 -0.000002 16.018799
							CHANNELS 3 Xrotation Yrotation Zrotation
							End Site
							{
								OFFSET -0.030430 0.894206 7.757812
							}
						}
					}
				}
			}
		}
	}
}
MOTION
Frames: 10
Frame Time: 0.041667
51.104496 -8.826719 95.598495 -2.402659 0.594758 3.592785 -1.944165 -0.112283 -0.016352 0.115460 -0.224237 -0.045777 1.760544 -0.224740 -0.043048 20.166991 -1.910089 -0.446749 -0.399037 0.202204 -0.506652 4.234259 -73.119634 2.927539 -58.785840 -112.807370 -34.574872 0.000002 -0.000004 -0.000001 0.020601 -2.122080 -0.052123 0.000003 0.000008 -3.015290 -5.000161 -7.999871 0.000035 -0.867020 72.135281 2.518692 -56.526130 116.512454 29.606999 -0.000001 -0.000001 0.000010 10.337537 -5.267752 -0.648826 0.000001 -0.000014 3.000000 -5.000143 8.000008 0.000006 1.545360 -176.655220 -2.039165 -179.999991 0.000005 -1.188994 173.316037 -2.649896 -0.726420 -0.000005 -0.000003 0.105739 69.545765 6.947617 1.928657 25.786099 -7.352834 0.501712 -0.900300 172.546916 -0.076154 -0.000005 -0.000004 -1.085650 -7.732874 1.610716 0.467086 -0.000000 -0.000001 -0.009680 69.425191 -6.368529 -3.470365 25.456955 7.355612 -0.000000 
51.102695 -8.837391 95.597595 -2.413899 0.595368 3.596117 -1.943694 -0.112245 -0.016135 0.116255 -0.224365 -0.043887 1.761334 -0.224847 -0.041160 20.199747 -1.904741 -0.448486 -0.420389 0.201130 -0.508686 4.250297 -73.137748 2.942623 -58.866320 -112.789537 -34.639864 -0.000000 -0.000003 -0.000000 0.020597 -2.115530 -0.051391 0.000003 0.000008 -3.014959 -5.000161 -7.999871 0.000037 -0.814405 72.165013 2.464130 -56.623163 116.453837 29.767160 -0.000000 -0.000002 0.000010 10.274548 -5.169805 -0.648154 0.000001 -0.000015 2.999997 -5.000149 8.000006 0.000010 1.560782 -176.659237 -2.039974 -179.999991 0.000005 -1.188994 173.315886 -2.647900 -0.726194 -0.000005 -0.000003 0.105739 69.549474 6.947621 1.928627 25.786510 -7.352836 0.502057 -0.886597 172.543870 -0.080199 -0.000005 -0.000004 -1.085230 -7.731684 1.611008 0.467257 -0.000001 -0.000001 -0.009679 69.423730 -6.367852 -3.471725 25.456953 7.355612 -0.000000 
51.100296 -8.836320 95.598000 -2.425498 0.595975 3.599304 -1.943103 -0.112217 -0.015886 0.117253 -0.224522 -0.041875 1.762333 -0.224981 -0.039147 20.232099 -1.899287 -0.450413 -0.441831 0.199781 -0.510875 4.265235 -73.155479 2.956576 -58.943098 -112.772960 -34.700387 0.000002 -0.000004 -0.000001 0.020595 -2.107959 -0.050693 0.000002 0.000008 -3.014628 -5.000162 -7.999870 0.000037 -0.762634 72.194423 2.410469 -56.720182 116.396573 29.924660 -0.000002 -0.000002 0.000008 10.213382 -5.075989 -0.646967 0.000000 -0.000015 3.000003 -5.000145 8.000008 0.000009 1.576701 -176.663266 -2.040817 -179.999991 0.000005 -1.188995 173.315886 -2.646910 -0.727089 -0.000005 -0.000003 0.105739 69.553189 6.947624 1.928592 25.786809 -7.352836 0.502354 -0.872355 172.540851 -0.084336 -0.000005 -0.000004 -1.084800 -7.730345 1.611340 0.467442 -0.000001 -0.000001 -0.009680 69.422166 -6.367201 -3.473096 25.456955 7.355613 -0.000002 
51.101997 -8.856758 95.600800 -2.437361 0.596577 3.602404 -1.942421 -0.112197 -0.015615 0.118393 -0.224700 -0.039775 1.763473 -0.225137 -0.037049 20.264249 -1.893753 -0.452475 -0.463344 0.198243 -0.513174 4.279435 -73.173032 2.969762 -59.018258 -112.757093 -34.758799 0.000002 -0.000004 -0.000001 0.020598 -2.099679 -0.050016 0.000003 0.000007 -3.014300 -5.000160 -7.999870 0.000036 -0.711421 72.223718 2.357399 -56.814811 116.340811 30.077489 -0.000001 -0.000001 0.000010 10.153607 -4.985074 -0.645357 0.000004 -0.000013 3.000004 -5.000140 8.000008 0.000010 1.592974 -176.667283 -2.041681 -179.999991 0.000005 -1.188995 173.316009 -2.644930 -0.726851 -0.000005 -0.000003 0.105739 69.556775 6.947622 1.928670 25.787215 -7.352839 0.502669 -0.857733 172.537818 -0.088535 -0.000005 -0.000004 -1.084350 -7.728896 1.611693 0.467633 -0.000001 -0.000001 -0.009680 69.420608 -6.366514 -3.474462 25.456952 7.355612 -0.000001 
51.098495 -8.855848 95.597908 -2.449365 0.597177 3.605454 -1.941694 -0.112181 -0.015330 0.119613 -0.224889 -0.037626 1.764693 -0.225303 -0.034901 20.296103 -1.888177 -0.454639 -0.484892 0.196596 -0.515535 4.293197 -73.190381 2.982496 -59.093642 -112.741363 -34.817326 -0.000000 -0.000004 -0.000002 0.020596 -2.090991 -0.049354 0.000001 0.000008 -3.013969 -5.000160 -7.999869 0.000038 -0.660455 72.252985 2.304589 -56.908747 116.285992 30.228447 -0.000001 -0.000002 0.000008 10.094610 -4.895812 -0.643436 0.000002 -0.000014 3.000000 -5.000147 8.000008 0.000010 1.609444 -176.671312 -2.042556 -179.999991 0.000005 -1.188995 173.316187 -2.643940 -0.727724 -0.000005 -0.000003 0.105739 69.560491 6.947624 1.928636 25.787512 -7.352838 0.502946 -0.842895 172.535797 -0.092788 -0.000005 -0.000004 -1.083900 -7.727378 1.612065 0.467830 -0.000001 -0.000001 -0.009680 69.419031 -6.365829 -3.475827 25.456948 7.355614 -0.000000 
51.095997 -8.856711 95.597992 -2.461400 0.597775 3.608485 -1.940964 -0.112164 -0.015043 0.120854 -0.225082 -0.035466 1.765933 -0.225473 -0.032740 20.328053 -1.882601 -0.456807 -0.506449 0.194923 -0.517913 4.306859 -73.207641 2.995134 -59.169130 -112.725674 -34.875854 -0.000000 -0.000004 -0.000001 0.020598 -2.082200 -0.048692 0.000004 0.000007 -3.013641 -5.000162 -7.999869 0.000037 -0.609431 72.282157 2.251725 -57.003106 116.231255 30.379503 -0.000001 -0.000002 0.000008 10.035861 -4.806972 -0.641307 0.000004 -0.000014 3.000000 -5.000145 8.000008 0.000008 1.625965 -176.676339 -2.043468 -179.999991 0.000005 -1.188995 173.316419 -2.641947 -0.728477 -0.000005 -0.000003 0.105739 69.564193 6.947627 1.928604 25.787823 -7.352837 0.503224 -0.828002 172.532764 -0.097035 -0.000005 -0.000005 -1.083450 -7.725848 1.612447 0.468029 -0.000001 -0.000001 -0.009679 69.417466 -6.365140 -3.477090 25.456953 7.355613 -0.000001 
51.095795 -8.863317 95.598694 -2.473373 0.598372 3.611546 -1.940243 -0.112148 -0.014762 0.122055 -0.225268 -0.033329 1.767133 -0.225636 -0.030604 20.360007 -1.877045 -0.458963 -0.527998 0.193308 -0.520262 4.320808 -73.225085 3.008051 -59.244624 -112.709931 -34.934502 0.000002 -0.000004 -0.000002 0.020598 -2.073610 -0.048025 0.000001 0.000008 -3.013310 -5.000164 -7.999869 0.000035 -0.558035 72.311411 2.198462 -57.099364 116.175876 30.533141 -0.000001 -0.000002 0.000010 9.976818 -4.717323 -0.639041 0.000002 -0.000014 2.999999 -5.000144 8.000007 0.000010 1.642375 -176.680369 -2.044350 -179.999991 0.000005 -1.188995 173.316597 -2.640957 -0.728355 -0.000005 -0.000003 0.105739 69.567908 6.947627 1.928572 25.788125 -7.352836 0.503501 -0.813219 172.529745 -0.101266 -0.000004 -0.000005 -1.083009 -7.724347 1.612810 0.468225 -0.000001 -0.000001 -0.009680 69.415902 -6.364454 -3.478456 25.456957 7.355613 -0.000001 
51.105698 -8.900200 95.601089 -2.485154 0.598970 3.614675 -1.939595 -0.112125 -0.014497 0.123154 -0.225441 -0.031254 1.768233 -0.225785 -0.028529 20.392158 -1.871545 -0.461018 -0.549487 0.191831 -0.522534 4.335328 -73.242632 3.021573 -59.320050 -112.694160 -34.993289 0.000002 -0.000004 -0.000002 0.020598 -2.065540 -0.047340 0.000002 0.000008 -3.012982 -5.000160 -7.999869 0.000038 -0.505956 72.340658 2.144487 -57.197254 116.119718 30.689833 -0.000003 -0.000002 0.000008 9.916833 -4.625609 -0.636741 0.000002 -0.000015 3.000001 -5.000148 8.000008 0.000008 1.658542 -176.684385 -2.045221 -179.999991 0.000004 -1.188995 173.316679 -2.638963 -0.729114 -0.000005 -0.000003 0.105739 69.571515 6.947661 1.928552 25.788534 -7.352838 0.503816 -0.798708 172.526713 -0.105453 -0.000005 -0.000005 -1.082570 -7.722928 1.613162 0.468414 -0.000001 -0.000001 -0.009680 69.414338 -6.363769 -3.479821 25.456955 7.355613 -0.000001 
51.100197 -8.898688 95.603096 -2.496654 0.599569 3.617912 -1.939033 -0.112093 -0.014258 0.124091 -0.225589 -0.029279 1.769174 -0.225911 -0.026554 20.424610 -1.866137 -0.462934 -0.570904 0.190577 -0.524684 4.350783 -73.260445 3.036058 -59.399416 -112.677235 -35.056711 0.000001 -0.000004 -0.000003 0.020593 -2.058269 -0.046635 0.000002 0.000007 -3.012650 -5.000160 -7.999870 0.000036 -0.452880 72.370082 2.089442 -57.296524 116.062604 30.850073 -0.000001 -0.000002 0.000008 9.855392 -4.530609 -0.634466 0.000002 -0.000015 3.000002 -5.000145 8.000008 0.000010 1.674315 -176.688415 -2.046065 -179.999991 0.000005 -1.188994 173.316638 -2.637973 -0.728998 -0.000005 -0.000003 0.105739 69.575217 6.947625 1.928713 25.788836 -7.352839 0.504123 -0.784623 172.524691 -0.109586 -0.000005 -0.000005 -1.082140 -7.721630 1.613484 0.468595 -0.000001 -0.000001 -0.009679 69.412774 -6.363117 -3.481193 25.456952 7.355612 -0.000001 
51.113598 -8.871439 95.569794 -2.507746 0.600172 3.621295 -1.938615 -0.112050 -0.014052 0.124806 -0.225704 -0.027438 1.769884 -0.226006 -0.024716 20.457569 -1.860864 -0.464628 -0.592213 0.189625 -0.526665 4.367544 -73.278743 3.051898 -59.480702 -112.659688 -35.122622 0.000002 -0.000004 -0.000003 0.020599 -2.052130 -0.045889 0.000002 0.000007 -3.012319 -5.000161 -7.999871 0.000037 -0.398489 72.399698 2.033019 -57.398424 116.003701 31.015910 -0.000001 -0.000002 0.000009 9.791922 -4.431081 -0.632282 0.000000 -0.000014 3.000000 -5.000145 8.000009 0.000010 1.689529 -176.692431 -2.046873 -179.999991 0.000005 -1.188994 173.316405 -2.635991 -0.729775 -0.000005 -0.000003 0.105739 69.578912 6.947627 1.928681 25.789234 -7.352840 0.504478 -0.771138 172.521672 -0.113607 -0.000005 -0.000005 -1.081720 -7.720511 1.613755 0.468762 -0.000001 -0.000001 -0.009679 69.411312 -6.362436 -3.482652 25.456957 7.355615 -0.000000 
